<?xml version="1.0" encoding="utf-8"?>
<!-- Generator: Adobe Illustrator 26.0.3, SVG Export Plug-In . SVG Version: 6.00 Build 0)  -->
<svg version="1.1" id="Layer_1" xmlns="http://www.w3.org/2000/svg" xmlns:xlink="http://www.w3.org/1999/xlink" x="0px" y="0px"
	 viewBox="0 0 666.14 348.66" style="enable-background:new 0 0 666.14 348.66;" xml:space="preserve">
<style type="text/css">
	.st0{fill:#FFFFFF;stroke:#000000;stroke-width:0.75;stroke-miterlimit:10;}
	.st1{fill:#FFFFFF;stroke:#000000;stroke-width:2;stroke-miterlimit:10;}
	.st2{font-family:'MyriadPro-Regular';}
	.st3{font-size:25.5px;}
	.st4{fill:none;stroke:#ED1C24;stroke-linecap:round;stroke-miterlimit:10;}
	.st5{fill:#ED1C24;}
	.st6{fill:none;stroke:#ED1C24;stroke-miterlimit:10;}
	.st7{fill:none;stroke:#000000;stroke-width:2;stroke-linecap:round;stroke-miterlimit:10;}
	.st8{fill:#FFFFFF;stroke:#000000;stroke-miterlimit:10;}
	.st9{fill:none;stroke:#000000;stroke-width:2;stroke-miterlimit:10;}
	.st10{fill:none;stroke:#000000;stroke-width:0.75;stroke-miterlimit:10;}
	.st11{fill:none;stroke:#000000;stroke-width:0.75;stroke-miterlimit:10;stroke-dasharray:3.0313,3.0313;}
</style>
<g>
	<path class="st0" d="M590.45,310.53H199.17c-9.02,0-16.34-7.32-16.34-16.34V44.32c0-9.02,7.32-16.34,16.34-16.34h391.28
		c9.02,0,16.34,7.32,16.34,16.34v249.88C606.79,303.22,599.48,310.53,590.45,310.53z"/>
	<rect x="310.84" y="57.48" class="st1" width="79.67" height="71.48"/>
	<rect x="35.61" y="51.79" class="st1" width="79.67" height="71.48"/>
	<rect x="195.45" y="130.41" class="st1" width="79.67" height="71.48"/>
	<text transform="matrix(1 0 0 1 329.0378 80.6895)" class="st2 st3">{B}</text>
	<text transform="matrix(1 0 0 1 40.1521 78.9883)" class="st2 st3">{W}</text>
	<text transform="matrix(1 0 0 1 201.0598 157.4072)" class="st2 st3">{G}</text>
	<text transform="matrix(1 0 0 1 489.2312 102.1426)" class="st2 st3">{L}</text>
	<text transform="matrix(1 0 0 1 324.3611 222.252)" class="st2 st3">{C</text>
	<text transform="matrix(0.583 0 0 0.583 346.3923 230.7437)" class="st2 st3">d</text>
	<text transform="matrix(1 0 0 1 354.7771 222.252)" class="st2 st3">}</text>
	<text transform="matrix(1 0 0 1 129.3982 99.5171)" class="st2 st3"> T</text>
	<text transform="matrix(0.583 0 0 0.583 147.4773 108.0088)" class="st2 st3">WG</text>
	<text transform="matrix(1 0 0 1 407.2664 93.2178)" class="st2 st3"> T</text>
	<text transform="matrix(0.583 0 0 0.583 425.3455 101.7095)" class="st2 st3">BL</text>
	<text transform="matrix(1 0 0 1 307.7805 173.5586)" class="st2 st3"> T</text>
	<text transform="matrix(0.583 0 0 0.583 325.8591 182.0503)" class="st2 st3">BC</text>
	<text transform="matrix(0.583 0 0 0.583 342.5398 186.5503)" class="st2 st3">d</text>
	<text transform="matrix(1 0 0 1 412.2 175.6611)" class="st2 st3"> T</text>
	<text transform="matrix(0.583 0 0 0.583 430.2791 184.1528)" class="st2 st3">BC</text>
	<text transform="matrix(0.583 0 0 0.583 446.9587 188.6528)" class="st2 st3">f</text>
	<text transform="matrix(1 0 0 1 245.447 93.2178)" class="st2 st3"> T</text>
	<text transform="matrix(0.583 0 0 0.583 263.5261 101.7095)" class="st2 st3">GB</text>
	<text transform="matrix(1 0 0 1 477.6687 220.3672)" class="st2 st3">{C</text>
	<text transform="matrix(0.583 0 0 0.583 499.7 228.8589)" class="st2 st3">f</text>
	<text transform="matrix(1 0 0 1 504.0408 220.3672)" class="st2 st3">}</text>
	<g>
		<g>
			<g>
				<line class="st4" x1="342.25" y1="122" x2="342.4" y2="98.21"/>
				<g>
					<polygon class="st5" points="344.14,99.41 342.43,92.89 340.65,99.38 					"/>
				</g>
			</g>
		</g>
		<g>
			<g>
				<line class="st6" x1="342.25" y1="122" x2="365.69" y2="122"/>
				<g>
					<polygon class="st5" points="364.5,123.74 371,122 364.5,120.26 					"/>
				</g>
			</g>
		</g>
	</g>
	<g>
		<g>
			<g>
				<line class="st4" x1="69.56" y1="116.31" x2="69.71" y2="92.52"/>
				<g>
					<polygon class="st5" points="71.45,93.72 69.75,87.2 67.96,93.7 					"/>
				</g>
			</g>
		</g>
		<g>
			<g>
				<line class="st6" x1="69.56" y1="116.31" x2="93" y2="116.31"/>
				<g>
					<polygon class="st5" points="91.81,118.06 98.32,116.31 91.81,114.57 					"/>
				</g>
			</g>
		</g>
	</g>
	<g>
		<g>
			<g>
				<line class="st4" x1="224.48" y1="192.65" x2="224.63" y2="168.86"/>
				<g>
					<polygon class="st5" points="226.37,170.06 224.66,163.54 222.88,170.04 					"/>
				</g>
			</g>
		</g>
		<g>
			<g>
				<line class="st6" x1="224.48" y1="192.65" x2="247.92" y2="192.65"/>
				<g>
					<polygon class="st5" points="246.73,194.4 253.23,192.65 246.73,190.91 					"/>
				</g>
			</g>
		</g>
	</g>
	<g>
		<g>
			<g>
				<line class="st4" x1="342.62" y1="253.74" x2="373.96" y2="253.94"/>
				<g>
					<polygon class="st5" points="372.76,255.67 379.28,253.97 372.78,252.19 					"/>
				</g>
			</g>
		</g>
		<g>
			<g>
				<line class="st6" x1="342.62" y1="253.74" x2="342.62" y2="284.64"/>
				<g>
					<polygon class="st5" points="340.87,283.45 342.62,289.95 344.36,283.45 					"/>
				</g>
			</g>
		</g>
	</g>
	<g>
		<g>
			<g>
				<line class="st4" x1="532.66" y1="239.65" x2="532.83" y2="212.76"/>
				<g>
					<polygon class="st5" points="534.56,213.96 532.86,207.45 531.08,213.94 					"/>
				</g>
			</g>
		</g>
		<g>
			<g>
				<line class="st6" x1="532.66" y1="239.65" x2="559.15" y2="239.65"/>
				<g>
					<polygon class="st5" points="557.96,241.39 564.46,239.65 557.96,237.9 					"/>
				</g>
			</g>
		</g>
	</g>
	<g>
		<polyline class="st7" points="464.94,232.94 464.94,196.98 543.95,196.98 543.95,232.94 		"/>
		<polyline class="st7" points="464.94,232.94 464.94,268.9 543.95,268.9 543.95,232.94 		"/>
		<path class="st7" d="M544.4,216.77c20.73-13.6,20.73-13.6,20.73-13.6s0,22.03,0,29.37"/>
		<path class="st7" d="M544.4,249.1c20.73,13.6,20.73,13.6,20.73,13.6s0-22.03,0-29.37"/>
	</g>
	<g>
		<polyline class="st7" points="342.25,192.77 378.21,192.77 378.21,271.79 342.25,271.79 		"/>
		<polyline class="st7" points="342.25,192.77 306.29,192.77 306.29,271.79 342.25,271.79 		"/>
		<path class="st7" d="M358.41,272.24c13.6,20.73,13.6,20.73,13.6,20.73s-22.03,0-29.37,0"/>
		<path class="st7" d="M326.09,272.24c-13.6,20.73-13.6,20.73-13.6,20.73s22.03,0,29.37,0"/>
	</g>
	<path class="st8" d="M578.51,109.67"/>
	<polygon class="st9" points="464.15,76.72 555.01,51.05 552.56,135.39 464.15,111.35 	"/>
	<g>
		<g>
			<g>
				<line class="st4" x1="539.81" y1="99.52" x2="539.97" y2="74.06"/>
				<g>
					<polygon class="st5" points="541.7,75.26 540,68.74 538.22,75.24 					"/>
				</g>
			</g>
		</g>
		<g>
			<g>
				<line class="st6" x1="539.81" y1="99.52" x2="564.89" y2="99.52"/>
				<g>
					<polygon class="st5" points="563.7,101.26 570.2,99.52 563.7,97.77 					"/>
				</g>
			</g>
		</g>
	</g>
	<g>
		<g>
			<path class="st10" d="M75.78,111.75c0.49-0.12,0.97-0.24,1.46-0.36"/>
			<path class="st11" d="M80.18,110.69c43.99-10.23,63.36-2.26,72.86,7.39c10.65,10.82,8.69,23.53,21.77,41.44
				c11.91,16.31,27.81,25.33,40.06,30.48"/>
			<path class="st10" d="M216.27,190.57c0.47,0.19,0.93,0.38,1.39,0.55"/>
		</g>
	</g>
	<path class="st10" d="M230.3,187.61c3.74-10.49,9.71-25.32,18.96-42.14c13.38-24.32,20.06-36.47,33.01-41.44
		c22.37-8.59,47.39,9.39,52.68,13.35"/>
	<path class="st10" d="M337.48,248.81c-3.46-1.97-36.95-21.71-39.81-58c-1.36-17.17,4.68-31.15,7.86-37.36
		c9.31-18.15,23.65-27.2,29.49-30.48"/>
	<path class="st10" d="M349.28,116.58c38.57-15.32,64.55-12.23,81.6-5.9c21.49,7.99,29.7,21.47,49.15,22.61
		c22.96,1.34,42.86-15.63,56.53-30.97"/>
	<path class="st10" d="M527.21,238.48c-31.83,0.24-72.2-5.01-93.39-33.42c-5.39-7.23-6.46-11.82-11.8-20.64
		c-11.17-18.46-32.64-41.54-78.15-58.98"/>
</g>
</svg>
