<?xml version="1.0" encoding="utf-8"?>
<!-- Generator: Adobe Illustrator 26.0.3, SVG Export Plug-In . SVG Version: 6.00 Build 0)  -->
<svg version="1.1" id="Layer_1" xmlns="http://www.w3.org/2000/svg" xmlns:xlink="http://www.w3.org/1999/xlink" x="0px" y="0px"
	 viewBox="0 0 363.55 239.54" style="enable-background:new 0 0 363.55 239.54;" xml:space="preserve">
<style type="text/css">
	.st0{fill:#FFFFFF;stroke:#000000;stroke-miterlimit:10;}
	.st1{font-family:'MyriadPro-Regular';}
	.st2{font-size:12px;}
	.st3{fill:none;stroke:#ED1C24;stroke-miterlimit:10;}
	.st4{fill:#ED1C24;}
	.st5{fill:none;stroke:#ED1C24;stroke-linecap:square;stroke-miterlimit:10;}
	.st6{fill:none;stroke:#000000;stroke-width:3;stroke-linecap:square;stroke-miterlimit:10;}
	.st7{font-size:9px;}
</style>
<rect x="265.19" y="5.26" class="st0" width="89.03" height="71.27"/>
<text transform="matrix(1 0 0 1 275.3739 37.2116)"><tspan x="0" y="0" class="st1 st2">Jetson Xavier </tspan><tspan x="11.14" y="14.4" class="st1 st2">AGX GPU</tspan></text>
<g>
	<rect x="195.36" y="96.5" class="st0" width="44.72" height="44.72"/>
	<text transform="matrix(1 0 0 1 202.6796 115.1759)"><tspan x="0" y="0" class="st1 st2">Down</tspan><tspan x="-4.2" y="14.4" class="st1 st2">Camera</tspan></text>
</g>
<rect x="8.79" y="187.74" class="st0" width="44.72" height="44.72"/>
<text transform="matrix(1 0 0 1 21.0069 213.6157)" class="st1 st2">IMU</text>
<rect x="9.14" y="96.5" class="st0" width="44.72" height="44.72"/>
<text transform="matrix(1 0 0 1 18.5409 122.3758)" class="st1 st2">SMM</text>
<g>
	<rect x="102.07" y="96.5" class="st0" width="44.72" height="44.72"/>
	<text transform="matrix(1 0 0 1 110.6909 122.3756)" class="st1 st2">GNSS</text>
</g>
<rect x="9.14" y="5.26" class="st0" width="44.72" height="44.72"/>
<text transform="matrix(1 0 0 1 16.3632 31.1361)" class="st1 st2">LiDAR</text>
<g>
	<rect x="195.36" y="187.74" class="st0" width="44.72" height="44.72"/>
	<text transform="matrix(1 0 0 1 204.2214 206.5476)"><tspan x="0" y="0" class="st1 st2">Front</tspan><tspan x="-5.74" y="14.4" class="st1 st2">Camera</tspan></text>
</g>
<g>
	<g>
		<line class="st3" x1="189.32" y1="210.09" x2="53.51" y2="210.09"/>
		<g>
			<path class="st4" d="M195.36,210.09c-2.84-1.05-6.36-2.85-8.55-4.76l1.72,4.76l-1.72,4.75
				C188.99,212.94,192.52,211.15,195.36,210.09z"/>
		</g>
	</g>
</g>
<line class="st5" x1="170.85" y1="118.85" x2="170.85" y2="210.09"/>
<g>
	<g>
		<line class="st5" x1="170.85" y1="118.85" x2="189.32" y2="118.85"/>
		<g>
			<path class="st4" d="M195.36,118.85c-2.84,1.05-6.36,2.85-8.55,4.76l1.72-4.76l-1.72-4.75C188.99,116,192.52,117.8,195.36,118.85
				z"/>
		</g>
	</g>
</g>
<g>
	<g>
		<line class="st5" x1="31.49" y1="96.5" x2="31.49" y2="56.01"/>
		<g>
			<path class="st4" d="M31.49,49.97c1.05,2.84,2.85,6.36,4.76,8.55l-4.76-1.72l-4.75,1.72C28.64,56.34,30.44,52.81,31.49,49.97z"/>
		</g>
	</g>
</g>
<g>
	<g>
		<line class="st5" x1="102.07" y1="118.85" x2="59.54" y2="118.85"/>
		<g>
			<path class="st4" d="M53.51,118.85c2.84-1.05,6.36-2.85,8.55-4.76l-1.72,4.76l1.72,4.75C59.87,121.7,56.35,119.91,53.51,118.85z"
				/>
		</g>
	</g>
</g>
<g>
	<g>
		<line class="st5" x1="31.49" y1="141.52" x2="31.49" y2="181.7"/>
		<g>
			<path class="st4" d="M31.49,187.74c-1.05-2.84-2.85-6.36-4.76-8.55l4.76,1.72l4.75-1.72C34.35,181.37,32.55,184.9,31.49,187.74z"
				/>
		</g>
	</g>
</g>
<line class="st6" x1="55.11" y1="198.33" x2="154.77" y2="198.33"/>
<line class="st6" x1="154.77" y1="198.33" x2="154.77" y2="68.65"/>
<g>
	<g>
		<line class="st6" x1="154.77" y1="68.65" x2="257.44" y2="68.65"/>
		<g>
			<path d="M264.68,68.65c-3.41,1.26-7.64,3.42-10.26,5.71l2.06-5.71l-2.06-5.71C257.05,65.23,261.28,67.38,264.68,68.65z"/>
		</g>
	</g>
</g>
<g>
	<g>
		<line class="st6" x1="293.32" y1="118.85" x2="293.32" y2="82.79"/>
		<g>
			<path d="M293.32,75.54c1.26,3.41,3.42,7.64,5.71,10.26l-5.71-2.06l-5.71,2.06C289.9,83.18,292.06,78.95,293.32,75.54z"/>
		</g>
	</g>
</g>
<g>
	<g>
		<line class="st6" x1="331.91" y1="210.09" x2="331.91" y2="82.79"/>
		<g>
			<path d="M331.91,75.54c1.26,3.41,3.42,7.64,5.71,10.26l-5.71-2.06l-5.71,2.06C328.49,83.18,330.65,78.95,331.91,75.54z"/>
		</g>
	</g>
</g>
<line class="st6" x1="241.27" y1="118.85" x2="293.32" y2="118.85"/>
<line class="st6" x1="241.81" y1="210.09" x2="331.91" y2="210.09"/>
<line class="st6" x1="124.43" y1="94.87" x2="124.43" y2="47.98"/>
<g>
	<g>
		<line class="st6" x1="124.43" y1="47.98" x2="257.63" y2="48.37"/>
		<g>
			<path d="M264.87,48.39c-3.41,1.25-7.65,3.4-10.27,5.68l2.08-5.7l-2.05-5.71C257.24,44.94,261.46,47.11,264.87,48.39z"/>
		</g>
	</g>
</g>
<g>
	<g>
		<line class="st6" x1="55.11" y1="27.61" x2="257.95" y2="27.61"/>
		<g>
			<path d="M265.19,27.61c-3.41,1.26-7.64,3.42-10.26,5.71l2.06-5.71l-2.06-5.71C257.55,24.19,261.78,26.35,265.19,27.61z"/>
		</g>
	</g>
</g>
<text transform="matrix(1 0 0 1 71.4968 220.8043)" class="st1 st7">trigger pulse - 20Hz</text>
<text transform="matrix(1 0 0 1 266.2084 222.6852)"><tspan x="0" y="0" class="st1 st7">MU synced</tspan><tspan x="-15.23" y="10.8" class="st1 st7">camera data - 20Hz</tspan></text>
<text transform="matrix(1 0 0 1 265.0959 133.4877)"><tspan x="0" y="0" class="st1 st7">IMU synced</tspan><tspan x="-15.11" y="10.8" class="st1 st7">camera data - 20Hz </tspan></text>
<text transform="matrix(1 0 0 1 132.3428 21.7268)" class="st1 st7">PPS synced LiDAR data - 10Hz </text>
<text transform="matrix(1 0 0 1 140.6013 62.2667)" class="st1 st7">PPS synced imu data - 400Hz </text>
<text transform="matrix(1 0 0 1 179.6444 42.1075)" class="st1 st7">GNSS data - 1Hz</text>
<text transform="matrix(1 0 0 1 36.5194 79.1178)" class="st1 st7">NMEA msg - 1Hz </text>
<text transform="matrix(1 0 0 1 35.9784 165.7068)" class="st1 st7">PPS msg - 1Hz </text>
<text transform="matrix(1 0 0 1 62.8892 109.3675)" class="st1 st7">PPS - 1Hz</text>
</svg>
